<svg width="31" height="31" viewBox="0 0 31 31" fill="none" xmlns="http://www.w3.org/2000/svg">
<path d="M25.8893 4.79431H4.79431C4.2857 4.79431 3.79792 4.99636 3.43828 5.356C3.07863 5.71564 2.87659 6.20342 2.87659 6.71204V23.9716C2.87659 24.4802 3.07863 24.9679 3.43828 25.3276C3.79792 25.6872 4.2857 25.8893 4.79431 25.8893H25.8893C26.3979 25.8893 26.8857 25.6872 27.2453 25.3276C27.605 24.9679 27.807 24.4802 27.807 23.9716V6.71204C27.807 6.20342 27.605 5.71564 27.2453 5.356C26.8857 4.99636 26.3979 4.79431 25.8893 4.79431ZM4.79431 6.71204H25.8893V11.5063H4.79431V6.71204ZM25.8893 23.9716H13.4241V13.4241H25.8893V23.9716Z" fill="white"/>
</svg>
